<svg width="122" height="44" viewBox="0 0 122 44" fill="none" xmlns="http://www.w3.org/2000/svg">
<g clip-path="url(#clip0_108_2675)">
<path d="M51.9558 36.4799C52.1359 34.3507 52.4733 32.2377 52.9653 30.1583C53.4715 28.0296 54.155 25.947 55.0087 23.9323C55.8832 21.8578 56.9103 19.8511 58.0817 17.9286C59.2832 15.9582 60.6568 14.0979 62.1864 12.3697H47.9556V7.32666H68.3702V11.716C65.1984 15.2034 62.642 19.2041 60.81 23.5476C59.0867 27.6565 58.0819 32.0308 57.8393 36.4799H51.9558Z" fill="#E43226"/>
<path d="M87.2552 36.4799V23.3942H75.8839V36.4799H69.7891V7.32666H75.8905V18.3022H87.2619V7.32666H93.4034V36.4799H87.2552Z" fill="#E43226"/>
<path d="M95.8184 12.6344V7.32227H101.524V12.6344H95.8184ZM95.8184 36.4777V14.878H101.524V36.4799L95.8184 36.4777Z" fill="#E43226"/>
<path d="M116.317 26.625V27.2743C116.317 28.6203 116.046 29.658 115.503 30.3873C114.961 31.1167 114.12 31.4821 112.98 31.4835C111.809 31.4835 110.967 31.113 110.456 30.3718C109.944 29.6306 109.688 28.5692 109.687 27.1876V18.3178H121.629V14.2776H109.687V8.43848H104.068V27.7568C104.061 28.8865 104.224 30.0107 104.55 31.0922C104.857 32.1185 105.388 33.0635 106.107 33.8583C106.872 34.6813 107.808 35.3258 108.85 35.7461C109.962 36.2131 111.308 36.4466 112.888 36.4466C114.233 36.4796 115.57 36.2414 116.82 35.7461C117.857 35.3188 118.787 34.6664 119.541 33.8361C120.255 33.0343 120.794 32.0921 121.122 31.07C121.461 30.0159 121.632 28.9152 121.629 27.808V26.6317L116.317 26.625Z" fill="#E43226"/>
<path d="M0.0646562 23.703C0.0490912 23.5007 0.0357497 23.2983 0.0268555 23.0938C0.0357497 23.2983 0.0490912 23.5007 0.0646562 23.703Z" fill="white"/>
<path d="M0.135713 19.5806C0.104583 19.8807 0.0778997 20.1832 0.0556641 20.4856C0.0778997 20.1787 0.102359 19.8763 0.135713 19.5806Z" fill="white"/>
<path d="M0.0157827 21.2241C0.0157827 21.4465 0.00244141 21.6866 0.00244141 21.9201C0.00244141 21.6866 0.009112 21.4554 0.0157827 21.2241Z" fill="white"/>
<path d="M0.26238 18.6289C0.217909 18.9202 0.177885 19.2137 0.144531 19.5072C0.177885 19.2137 0.217909 18.9135 0.26238 18.6289Z" fill="white"/>
<path d="M0.41347 17.8018C0.364551 18.053 0.317856 18.3065 0.277832 18.5622C0.315633 18.2976 0.362328 18.0441 0.41347 17.8018Z" fill="white"/>
<path d="M1.63648 13.6948C1.51196 13.9995 1.39633 14.3063 1.28516 14.6176C1.39633 14.3063 1.51196 13.9995 1.63648 13.6948Z" fill="white"/>
<path d="M35.6085 4.71191H8.41863C5.73954 6.82067 3.58688 9.5229 2.13037 12.6056H26.1827L15.7053 43.0841C18.8942 44.0321 22.2561 44.248 25.5401 43.7155L37.8343 6.72869C37.1381 6.00764 36.3945 5.33388 35.6085 4.71191Z" fill="white"/>
<path d="M0.767233 16.27C0.698303 16.5302 0.629372 16.7903 0.569336 17.0527C0.636043 16.7903 0.698303 16.5302 0.767233 16.27Z" fill="white"/>
<path d="M0.120005 24.3123C0.120005 24.2767 0.120005 24.2411 0.108887 24.2056C0.113334 24.25 0.115558 24.2767 0.120005 24.3123Z" fill="white"/>
<path d="M0.0155649 22.787C0.0155649 22.5646 0.00222357 22.3267 0 22.0955C0.00222357 22.3267 0.00667064 22.558 0.0155649 22.787Z" fill="white"/>
<path d="M35.6083 4.71164C32.3683 2.15489 28.472 0.565511 24.3681 0.126638L24.2058 0.10885C24.0524 0.0932849 23.8967 0.0799434 23.7433 0.0688256C23.5321 0.0532606 23.3186 0.0376959 23.1051 0.026578H22.8205C22.5782 0.026578 22.3358 0.0110126 22.0912 0.00878906H22.0223C21.7087 0.00878906 21.3952 0.0087891 21.0839 0.0288012C16.4748 0.219717 12.0431 1.85826 8.41846 4.71164H35.6083Z" fill="#E43226"/>
<path d="M37.8454 6.68408L37.8343 6.72188C40.6236 9.61155 42.5688 13.2097 43.4588 17.1261C44.3488 21.0426 44.1496 25.128 42.883 28.9394C41.6164 32.7507 39.3305 36.1426 36.2734 38.7473C33.2162 41.352 29.5043 43.0702 25.5401 43.7154L25.5112 43.7999C29.4962 43.1652 33.2303 41.4483 36.3063 38.8366C39.3823 36.2248 41.6819 32.8185 42.9545 28.9892C44.227 25.1599 44.4235 21.0547 43.5226 17.1214C42.6216 13.1881 40.6578 9.57769 37.8454 6.68408Z" fill="#E43226"/>
<path d="M43.9957 22C44.0047 16.3022 41.7948 10.8247 37.8342 6.72852L25.54 43.7154C30.6915 42.8717 35.3756 40.2249 38.7561 36.2472C42.1366 32.2696 43.9936 27.2201 43.9957 22Z" fill="#E43226"/>
<path d="M0.108924 24.2057C0.0933593 24.0389 0.0777945 23.8721 0.0644531 23.7031C0.0777945 23.8721 0.0933593 24.0389 0.108924 24.2057Z" fill="#F7971D"/>
<path d="M0.0267431 23.094C0.0267431 22.9917 0.0267429 22.8894 0.015625 22.7871C0.0178486 22.8894 0.022296 22.9917 0.0267431 23.094Z" fill="#F7971D"/>
<path d="M0.120117 24.3123C0.57003 28.6354 2.28753 32.7292 5.05685 36.0793C7.82616 39.4294 11.5238 41.8863 15.6851 43.1414L15.7029 43.0836C11.5441 41.8397 7.84589 39.394 5.07326 36.0541C2.30064 32.7141 0.577362 28.6289 0.120117 24.3123Z" fill="#F7971D"/>
<path d="M2.11685 12.6077C0.720447 15.5512 -0.0026806 18.7688 7.46679e-06 22.0267V22.1023C7.46679e-06 22.3247 7.39877e-06 22.5648 0.0155724 22.7938C0.0155724 22.8961 0.0155726 22.9984 0.0266905 23.1007C0.0266905 23.3053 0.0489262 23.5076 0.0644912 23.71C0.0800562 23.9123 0.0933974 24.0457 0.108962 24.2125C0.108962 24.2481 0.108963 24.2836 0.12008 24.3192C0.578739 28.635 2.30291 32.7189 5.07587 36.0576C7.84883 39.3963 11.5468 41.8408 15.7051 43.0839L26.1825 12.6077H2.11685Z" fill="#F7971D"/>
</g>
<defs>
<clipPath id="clip0_108_2675">
<rect width="121.629" height="44" fill="white"/>
</clipPath>
</defs>
</svg>
