<svg width="27" height="18" viewBox="0 0 27 18" fill="none" xmlns="http://www.w3.org/2000/svg">
<path d="M0 0H27V18H0V0Z" fill="white"/>
<path d="M0 0H27V1.38421H0V0ZM0 2.76842H27V4.15263H0V2.76842ZM0 5.53684H27V6.92105H0V5.53684ZM0 8.30526H27V9.68947H0V8.30526ZM0 11.0789H27V12.4632H0V11.0789ZM0 13.8474H27V15.2316H0V13.8474ZM0 16.6158H27V18H0V16.6158Z" fill="#D80027"/>
<path d="M0 0H13.5V9.68947H0V0Z" fill="#2E52B2"/>
<path d="M2.51578 7.31052L2.30525 6.63683L2.07367 7.31052H1.37894L1.94209 7.71578L1.73157 8.38946L2.30525 7.97368L2.86315 8.38946L2.64736 7.71578L3.22104 7.31052H2.51578ZM5.47894 7.31052L5.26315 6.63683L5.0421 7.31052H4.34736L4.91052 7.71578L4.69999 8.38946L5.26315 7.97368L5.83157 8.38946L5.62104 7.71578L6.1842 7.31052H5.47894ZM8.45262 7.31052L8.22631 6.63683L8.01578 7.31052H7.30525L7.8842 7.71578L7.66315 8.38946L8.22631 7.97368L8.80525 8.38946L8.5842 7.71578L9.14736 7.31052H8.45262ZM11.4105 7.31052L11.2 6.63683L10.9789 7.31052H10.2789L10.8474 7.71578L10.6368 8.38946L11.2 7.97368L11.7684 8.38946L11.5421 7.71578L12.121 7.31052H11.4105ZM5.26315 3.96315L5.0421 4.63683H4.34736L4.91052 5.05262L4.69999 5.71578L5.26315 5.30525L5.83157 5.71578L5.62104 5.05262L6.1842 4.63683H5.47894L5.26315 3.96315ZM2.30525 3.96315L2.07367 4.63683H1.37894L1.94209 5.05262L1.73157 5.71578L2.30525 5.30525L2.86315 5.71578L2.64736 5.05262L3.22104 4.63683H2.51578L2.30525 3.96315ZM8.22631 3.96315L8.01578 4.63683H7.30525L7.8842 5.05262L7.66315 5.71578L8.22631 5.30525L8.80525 5.71578L8.5842 5.05262L9.14736 4.63683H8.45262L8.22631 3.96315ZM11.2 3.96315L10.9789 4.63683H10.2789L10.8474 5.05262L10.6368 5.71578L11.2 5.30525L11.7684 5.71578L11.5421 5.05262L12.121 4.63683H11.4105L11.2 3.96315ZM2.30525 1.29999L2.07367 1.96315H1.37894L1.94209 2.37894L1.73157 3.04736L2.30525 2.63157L2.86315 3.04736L2.64736 2.37894L3.22104 1.96315H2.51578L2.30525 1.29999ZM5.26315 1.29999L5.0421 1.96315H4.34736L4.91052 2.37894L4.69999 3.04736L5.26315 2.63157L5.83157 3.04736L5.62104 2.37894L6.1842 1.96315H5.47894L5.26315 1.29999ZM8.22631 1.29999L8.01578 1.96315H7.30525L7.8842 2.37894L7.66315 3.04736L8.22631 2.63157L8.80525 3.04736L8.5842 2.37894L9.14736 1.96315H8.45262L8.22631 1.29999ZM11.2 1.29999L10.9789 1.96315H10.2789L10.8474 2.37894L10.6368 3.04736L11.2 2.63157L11.7684 3.04736L11.5421 2.37894L12.121 1.96315H11.4105L11.2 1.29999Z" fill="white"/>
</svg>
