<svg width="628" height="628" viewBox="0 0 628 628" fill="none" xmlns="http://www.w3.org/2000/svg">
<path d="M628 480.294H0V480.608H628V480.294Z" fill="#EBEBEB"/>
<path d="M565.074 500.503H523.476V500.817H565.074V500.503Z" fill="#EBEBEB"/>
<path d="M416.012 503.92H405.098V504.234H416.012V503.92Z" fill="#EBEBEB"/>
<path d="M522.22 488.848H498.117V489.162H522.22V488.848Z" fill="#EBEBEB"/>
<path d="M120.136 490.958H65.8896V491.272H120.136V490.958Z" fill="#EBEBEB"/>
<path d="M139.278 490.958H131.327V491.272H139.278V490.958Z" fill="#EBEBEB"/>
<path d="M282.789 496.258H165.126V496.572H282.789V496.258Z" fill="#EBEBEB"/>
<path d="M297.672 424.277H55.1509C53.251 424.273 51.4301 423.516 50.0878 422.172C48.7456 420.827 47.9917 419.005 47.9917 417.105V76.189C48.0082 74.3 48.7694 72.4939 50.1099 71.1628C51.4503 69.8317 53.2618 69.0833 55.1509 69.0801H297.672C299.574 69.0801 301.398 69.8357 302.743 71.1806C304.088 72.5256 304.844 74.3498 304.844 76.2518V417.105C304.844 419.007 304.088 420.831 302.743 422.176C301.398 423.521 299.574 424.277 297.672 424.277ZM55.1509 69.3313C53.3343 69.3346 51.5932 70.0586 50.3098 71.3443C49.0265 72.63 48.3057 74.3724 48.3057 76.189V417.105C48.3057 418.922 49.0265 420.664 50.3098 421.95C51.5932 423.236 53.3343 423.96 55.1509 423.963H297.672C299.49 423.96 301.232 423.236 302.517 421.951C303.803 420.665 304.526 418.923 304.53 417.105V76.189C304.526 74.3713 303.803 72.6289 302.517 71.3435C301.232 70.0582 299.49 69.3346 297.672 69.3313H55.1509Z" fill="#EBEBEB"/>
<path d="M569.358 424.277H326.824C324.923 424.274 323.101 423.517 321.757 422.173C320.412 420.828 319.656 419.006 319.652 417.105V76.189C319.672 74.2989 320.436 72.4927 321.779 71.162C323.121 69.8313 324.934 69.0833 326.824 69.0801H569.358C571.245 69.0866 573.053 69.8365 574.391 71.1672C575.728 72.4979 576.488 74.3022 576.504 76.189V417.105C576.504 419.003 575.752 420.823 574.413 422.167C573.073 423.512 571.255 424.27 569.358 424.277ZM326.824 69.3313C325.006 69.3346 323.264 70.0582 321.979 71.3435C320.693 72.6289 319.97 74.3713 319.966 76.189V417.105C319.97 418.923 320.693 420.665 321.979 421.951C323.264 423.236 325.006 423.96 326.824 423.963H569.358C571.175 423.96 572.918 423.236 574.203 421.951C575.489 420.665 576.212 418.923 576.215 417.105V76.189C576.212 74.3713 575.489 72.6289 574.203 71.3435C572.918 70.0582 571.175 69.3346 569.358 69.3313H326.824Z" fill="#EBEBEB"/>
<path d="M206.599 82.582H117.109V386.17H206.599V82.582Z" fill="#FAFAFA"/>
<path d="M193.273 82.582H188.049L156.837 386.17H162.062L193.273 82.582Z" fill="#F5F5F5"/>
<path d="M205.017 83.75H116.532V86.4253H205.017V83.75Z" fill="#E0E0E0"/>
<path d="M205.017 383.507H116.532V389.234H205.017V383.507Z" fill="#EBEBEB"/>
<path d="M203.547 388.983H119.936V389.235H203.547V388.983Z" fill="#EBEBEB"/>
<path d="M119.935 83.7501H203.547V388.983H208.559V79.9946H114.924V388.983H119.935V83.7501Z" fill="#EBEBEB"/>
<path d="M306.188 82.582H216.698V386.17H306.188V82.582Z" fill="#FAFAFA"/>
<path d="M281.356 82.582H252.833L221.621 386.17H250.145L281.356 82.582Z" fill="#F5F5F5"/>
<path d="M307.117 83.75H216.12V86.4253H307.117V83.75Z" fill="#E0E0E0"/>
<path d="M307.117 383.507H216.12V389.234H307.117V383.507Z" fill="#EBEBEB"/>
<path d="M303.135 388.983H219.523V389.235H303.135V388.983Z" fill="#EBEBEB"/>
<path d="M219.524 83.7501H303.136V388.983H308.134V79.9946H214.512V388.983H219.524V83.7501Z" fill="#EBEBEB"/>
<path d="M403.251 82.582H316.273V386.17H403.251V82.582Z" fill="#FAFAFA"/>
<path d="M365.559 82.582H360.334L329.122 386.17H334.347L365.559 82.582Z" fill="#F5F5F5"/>
<path d="M404.193 83.75H315.708V86.4253H404.193V83.75Z" fill="#E0E0E0"/>
<path d="M404.193 383.507H315.708V389.234H404.193V383.507Z" fill="#EBEBEB"/>
<path d="M402.724 388.983H319.112V389.235H402.724V388.983Z" fill="#EBEBEB"/>
<path d="M319.112 83.7501H402.711V388.983H407.723V79.9946H314.101V388.983H319.112V83.7501Z" fill="#EBEBEB"/>
<path d="M505.351 82.582H415.861V386.17H505.351V82.582Z" fill="#FAFAFA"/>
<path d="M496.597 82.582H468.074L436.85 386.17H465.386L496.597 82.582Z" fill="#F5F5F5"/>
<path d="M503.769 83.75H415.284V86.4253H503.769V83.75Z" fill="#E0E0E0"/>
<path d="M503.769 383.507H415.284V389.234H503.769V383.507Z" fill="#EBEBEB"/>
<path d="M418.687 83.7501H502.299V388.983H507.311V79.9946H413.688V388.983H418.687V83.7501Z" fill="#EBEBEB"/>
<path d="M502.299 388.983H418.688V389.235H502.299V388.983Z" fill="#EBEBEB"/>
<path d="M185.185 316.336H146.336V383.52H185.185V316.336Z" fill="#EBEBEB"/>
<path d="M177.724 306.941V323.797H174.672H156.862H153.797V306.941H177.724Z" fill="#EBEBEB"/>
<path d="M177.724 323.797H182.698V318.823H177.724V323.797Z" fill="#FAFAFA"/>
<path d="M168.103 323.797H173.077V318.823H168.103V323.797Z" fill="#FAFAFA"/>
<path d="M158.47 323.797H163.443V318.823H158.47V323.797Z" fill="#FAFAFA"/>
<path d="M148.836 323.797H153.81V318.823H148.836V323.797Z" fill="#F0F0F0"/>
<path d="M177.724 332.828H182.698V327.854H177.724V332.828Z" fill="#F0F0F0"/>
<path d="M168.103 332.828H173.077V327.854H168.103V332.828Z" fill="#F0F0F0"/>
<path d="M158.47 332.828H163.443V327.854H158.47V332.828Z" fill="#FAFAFA"/>
<path d="M148.836 332.828H153.81V327.854H148.836V332.828Z" fill="#FAFAFA"/>
<path d="M177.724 341.871H182.698V336.897H177.724V341.871Z" fill="#F0F0F0"/>
<path d="M168.103 341.871H173.077V336.897H168.103V341.871Z" fill="#FAFAFA"/>
<path d="M158.47 341.871H163.443V336.897H158.47V341.871Z" fill="#FAFAFA"/>
<path d="M168.103 315.984H173.077V311.011H168.103V315.984Z" fill="#FAFAFA"/>
<path d="M158.47 315.984H163.443V311.011H158.47V315.984Z" fill="#F0F0F0"/>
<path d="M148.836 341.871H153.81V336.897H148.836V341.871Z" fill="#F0F0F0"/>
<path d="M177.724 350.914H182.698V345.94H177.724V350.914Z" fill="#FAFAFA"/>
<path d="M168.103 350.914H173.077V345.94H168.103V350.914Z" fill="#F0F0F0"/>
<path d="M158.47 350.914H163.443V345.94H158.47V350.914Z" fill="#F0F0F0"/>
<path d="M148.836 350.914H153.81V345.94H148.836V350.914Z" fill="#FAFAFA"/>
<path d="M177.724 359.957H182.698V354.983H177.724V359.957Z" fill="#F0F0F0"/>
<path d="M168.103 359.957H173.077V354.983H168.103V359.957Z" fill="#FAFAFA"/>
<path d="M158.47 359.957H163.443V354.983H158.47V359.957Z" fill="#FAFAFA"/>
<path d="M148.836 359.957H153.81V354.983H148.836V359.957Z" fill="#F0F0F0"/>
<path d="M177.724 368.988H182.698V364.014H177.724V368.988Z" fill="#F0F0F0"/>
<path d="M168.103 368.988H173.077V364.014H168.103V368.988Z" fill="#FAFAFA"/>
<path d="M158.47 368.988H163.443V364.014H158.47V368.988Z" fill="#F0F0F0"/>
<path d="M148.836 368.988H153.81V364.014H148.836V368.988Z" fill="#FAFAFA"/>
<path d="M177.724 378.031H182.698V373.057H177.724V378.031Z" fill="#FAFAFA"/>
<path d="M168.103 378.031H173.077V373.057H168.103V378.031Z" fill="#FAFAFA"/>
<path d="M158.47 378.031H163.443V373.057H158.47V378.031Z" fill="#F0F0F0"/>
<path d="M148.836 378.031H153.81V373.057H148.836V378.031Z" fill="#F0F0F0"/>
<path d="M458.867 340.803H424.063V383.507H458.867V340.803Z" fill="#F0F0F0"/>
<path d="M427.09 345.551H435.179H437.414H439.637V349.997H437.414H435.179H427.09V345.551Z" fill="#E6E6E6"/>
<path d="M427.09 354.18H435.179H437.414H439.637V358.638H437.414H435.179H427.09V354.18Z" fill="#FAFAFA"/>
<path d="M427.09 362.808H435.179H437.414H439.637V367.267H437.414H435.179H427.09V362.808Z" fill="#E6E6E6"/>
<path d="M427.09 371.437H435.179H438.62H439.637V375.896H438.62H435.179H427.09V371.437Z" fill="#FAFAFA"/>
<path d="M443.28 345.551H451.382H453.605H455.828V349.997H453.605H451.382H443.28V345.551Z" fill="#FAFAFA"/>
<path d="M443.28 354.18H451.382H454.522H455.828V358.638H454.522H451.382H443.28V354.18Z" fill="#FAFAFA"/>
<path d="M443.28 362.808H451.382H453.605H455.828V367.267H453.605H451.382H443.28V362.808Z" fill="#E6E6E6"/>
<path d="M443.28 371.437H451.382H453.605H455.828V375.896H453.605H451.382H443.28V371.437Z" fill="#FAFAFA"/>
<path d="M291.153 356.98H259.527V383.52H291.153V356.98Z" fill="#F0F0F0"/>
<path d="M285.087 364.34H289.131V360.296H285.087V364.34Z" fill="#FAFAFA"/>
<path d="M277.25 364.34H281.294V360.296H277.25V364.34Z" fill="#FAFAFA"/>
<path d="M269.4 364.34H273.444V360.296H269.4V364.34Z" fill="#FAFAFA"/>
<path d="M261.562 364.34H265.606V360.296H261.562V364.34Z" fill="#FAFAFA"/>
<path d="M285.087 371.688H289.131V367.644H285.087V371.688Z" fill="#FAFAFA"/>
<path d="M277.25 371.688H281.294V367.644H277.25V371.688Z" fill="#FAFAFA"/>
<path d="M269.4 371.688H273.444V367.644H269.4V371.688Z" fill="#FAFAFA"/>
<path d="M261.562 371.688H265.606V367.644H261.562V371.688Z" fill="#E6E6E6"/>
<path d="M285.087 379.048H289.131V375.004H285.087V379.048Z" fill="#E6E6E6"/>
<path d="M277.25 379.048H281.294V375.004H277.25V379.048Z" fill="#E6E6E6"/>
<path d="M269.4 379.048H273.444V375.004H269.4V379.048Z" fill="#FAFAFA"/>
<path d="M261.562 379.048H265.606V375.004H261.562V379.048Z" fill="#E6E6E6"/>
<path d="M255.244 337.362H223.618V383.52H255.244V337.362Z" fill="#F0F0F0"/>
<path d="M253.222 339.384H241.328V350.788H253.222V339.384Z" fill="#FAFAFA"/>
<path d="M237.535 339.384H225.641V350.788H237.535V339.384Z" fill="#FAFAFA"/>
<path d="M253.222 354.092H241.328V365.496H253.222V354.092Z" fill="#FAFAFA"/>
<path d="M237.535 354.092H225.641V365.496H237.535V354.092Z" fill="#FAFAFA"/>
<path d="M253.222 368.799H241.328V380.204H253.222V368.799Z" fill="#FAFAFA"/>
<path d="M237.535 368.799H225.641V380.204H237.535V368.799Z" fill="#FAFAFA"/>
<path d="M314 537.015C448.496 537.015 557.526 530.65 557.526 522.797C557.526 514.945 448.496 508.58 314 508.58C179.504 508.58 70.4741 514.945 70.4741 522.797C70.4741 530.65 179.504 537.015 314 537.015Z" fill="#F5F5F5"/>
<path d="M558.38 99.9902V376.612L525.096 409.896H332.413V99.9902H558.38Z" fill="#E43226"/>
<path opacity="0.8" d="M558.38 99.9902V376.612L525.096 409.896H332.413V99.9902H558.38Z" fill="white"/>
<path opacity="0.2" d="M525.096 409.896V377.591H558.38L525.749 410.222" fill="black"/>
<path opacity="0.1" d="M417.922 126.856H355.599C354.723 126.856 353.883 126.508 353.263 125.888C352.644 125.269 352.296 124.429 352.296 123.553C352.294 123.118 352.378 122.687 352.544 122.285C352.709 121.882 352.952 121.517 353.259 121.209C353.566 120.901 353.931 120.656 354.332 120.489C354.734 120.323 355.164 120.237 355.599 120.237H417.922C418.799 120.24 419.639 120.591 420.259 121.212C420.878 121.834 421.225 122.675 421.225 123.553C421.225 124.429 420.877 125.269 420.258 125.888C419.638 126.508 418.798 126.856 417.922 126.856Z" fill="black"/>
<path opacity="0.1" d="M530.962 153.659H380.719C380.284 153.659 379.854 153.573 379.452 153.407C379.051 153.24 378.686 152.995 378.379 152.687C378.072 152.379 377.829 152.014 377.664 151.611C377.499 151.209 377.414 150.778 377.416 150.343C377.416 149.467 377.764 148.627 378.384 148.008C379.003 147.388 379.843 147.04 380.719 147.04H530.962C531.838 147.04 532.678 147.388 533.298 148.008C533.917 148.627 534.265 149.467 534.265 150.343C534.265 151.221 533.918 152.062 533.299 152.684C532.679 153.305 531.839 153.656 530.962 153.659Z" fill="black"/>
<path opacity="0.1" d="M530.962 166.684H355.599C354.723 166.684 353.883 166.336 353.263 165.717C352.644 165.097 352.296 164.257 352.296 163.381C352.294 162.946 352.378 162.515 352.544 162.113C352.709 161.711 352.952 161.345 353.259 161.037C353.566 160.729 353.931 160.484 354.332 160.318C354.734 160.151 355.164 160.065 355.599 160.065H530.962C531.839 160.068 532.679 160.419 533.299 161.041C533.918 161.662 534.265 162.504 534.265 163.381C534.265 164.257 533.917 165.097 533.298 165.717C532.678 166.336 531.838 166.684 530.962 166.684Z" fill="black"/>
<path opacity="0.1" d="M530.962 181.404H355.599C355.164 181.404 354.734 181.318 354.332 181.152C353.931 180.985 353.566 180.74 353.259 180.432C352.952 180.124 352.709 179.759 352.544 179.356C352.378 178.954 352.294 178.523 352.296 178.088C352.296 177.212 352.644 176.372 353.263 175.753C353.883 175.133 354.723 174.785 355.599 174.785H530.962C531.838 174.785 532.678 175.133 533.298 175.753C533.917 176.372 534.265 177.212 534.265 178.088C534.265 178.966 533.918 179.807 533.299 180.429C532.679 181.05 531.839 181.401 530.962 181.404Z" fill="black"/>
<path opacity="0.1" d="M530.962 196.112H355.599C354.723 196.112 353.883 195.764 353.263 195.144C352.644 194.525 352.296 193.685 352.296 192.809C352.296 191.933 352.644 191.092 353.263 190.473C353.883 189.853 354.723 189.505 355.599 189.505H530.962C531.838 189.505 532.678 189.853 533.298 190.473C533.917 191.092 534.265 191.933 534.265 192.809C534.265 193.685 533.917 194.525 533.298 195.144C532.678 195.764 531.838 196.112 530.962 196.112Z" fill="black"/>
<path opacity="0.1" d="M530.962 210.832H355.599C354.723 210.832 353.883 210.484 353.263 209.865C352.644 209.245 352.296 208.405 352.296 207.529C352.294 207.095 352.379 206.664 352.544 206.263C352.709 205.861 352.953 205.496 353.26 205.189C353.567 204.882 353.932 204.639 354.333 204.474C354.735 204.308 355.165 204.224 355.599 204.226H530.962C531.838 204.226 532.678 204.574 533.298 205.193C533.917 205.813 534.265 206.653 534.265 207.529C534.265 208.405 533.917 209.245 533.298 209.865C532.678 210.484 531.838 210.832 530.962 210.832Z" fill="black"/>
<path opacity="0.1" d="M530.962 225.553H355.599C354.723 225.553 353.883 225.205 353.263 224.585C352.644 223.966 352.296 223.126 352.296 222.249C352.294 221.815 352.378 221.384 352.544 220.981C352.709 220.579 352.952 220.214 353.259 219.906C353.566 219.597 353.931 219.353 354.332 219.186C354.734 219.019 355.164 218.934 355.599 218.934H530.962C531.839 218.937 532.679 219.288 533.299 219.909C533.918 220.531 534.265 221.372 534.265 222.249C534.265 223.126 533.917 223.966 533.298 224.585C532.678 225.205 531.838 225.553 530.962 225.553Z" fill="black"/>
<path opacity="0.1" d="M530.974 233.654H355.599C353.775 233.654 352.296 235.133 352.296 236.957V236.97C352.296 238.794 353.775 240.273 355.599 240.273H530.974C532.799 240.273 534.278 238.794 534.278 236.97V236.957C534.278 235.133 532.799 233.654 530.974 233.654Z" fill="black"/>
<path opacity="0.1" d="M530.962 254.968H355.599C354.723 254.968 353.883 254.62 353.263 254C352.644 253.381 352.296 252.541 352.296 251.665C352.296 250.789 352.644 249.948 353.263 249.329C353.883 248.709 354.723 248.361 355.599 248.361H530.962C531.838 248.361 532.678 248.709 533.298 249.329C533.917 249.948 534.265 250.789 534.265 251.665C534.265 252.541 533.917 253.381 533.298 254C532.678 254.62 531.838 254.968 530.962 254.968Z" fill="black"/>
<path opacity="0.1" d="M530.962 269.701H355.599C354.723 269.701 353.883 269.353 353.263 268.733C352.644 268.114 352.296 267.274 352.296 266.398C352.294 265.963 352.379 265.533 352.544 265.131C352.709 264.73 352.953 264.365 353.26 264.058C353.567 263.751 353.932 263.508 354.333 263.342C354.735 263.177 355.165 263.093 355.599 263.094H530.962C531.838 263.094 532.678 263.442 533.298 264.062C533.917 264.681 534.265 265.521 534.265 266.398C534.265 267.274 533.917 268.114 533.298 268.733C532.678 269.353 531.838 269.701 530.962 269.701Z" fill="black"/>
<path opacity="0.1" d="M530.962 284.421H355.599C354.723 284.421 353.883 284.073 353.263 283.454C352.644 282.834 352.296 281.994 352.296 281.118C352.294 280.683 352.378 280.252 352.544 279.85C352.709 279.448 352.952 279.082 353.259 278.774C353.566 278.466 353.931 278.222 354.332 278.055C354.734 277.888 355.164 277.802 355.599 277.802H530.962C531.839 277.806 532.679 278.156 533.299 278.778C533.918 279.399 534.265 280.241 534.265 281.118C534.265 281.994 533.917 282.834 533.298 283.454C532.678 284.073 531.838 284.421 530.962 284.421Z" fill="black"/>
<path opacity="0.1" d="M530.962 299.142H355.599C355.164 299.142 354.734 299.056 354.332 298.889C353.931 298.722 353.566 298.478 353.259 298.17C352.952 297.862 352.709 297.496 352.544 297.094C352.378 296.691 352.294 296.261 352.296 295.826C352.296 294.95 352.644 294.109 353.263 293.49C353.883 292.87 354.723 292.522 355.599 292.522H530.962C531.838 292.522 532.678 292.87 533.298 293.49C533.917 294.109 534.265 294.95 534.265 295.826C534.265 296.703 533.918 297.544 533.299 298.166C532.679 298.787 531.839 299.138 530.962 299.142Z" fill="black"/>
<path opacity="0.1" d="M430.482 313.849H355.599C354.723 313.849 353.883 313.501 353.263 312.882C352.644 312.262 352.296 311.422 352.296 310.546C352.296 309.67 352.644 308.83 353.263 308.21C353.883 307.591 354.723 307.243 355.599 307.243H430.482C431.358 307.243 432.198 307.591 432.818 308.21C433.437 308.83 433.785 309.67 433.785 310.546C433.785 311.422 433.437 312.262 432.818 312.882C432.198 313.501 431.358 313.849 430.482 313.849Z" fill="black"/>
<path d="M517.472 167.776L517.233 167.576C516.555 167.061 516.166 167.236 515.852 166.244C515.626 165.528 515.852 164.724 515.588 163.983C514.99 162.708 514.306 161.474 513.541 160.291L510.451 154.727C509.761 153.495 508.611 152.586 507.253 152.2C505.895 151.814 504.439 151.982 503.204 152.667L474.756 168.518C474.643 169.472 473.851 170.125 473.688 171.03C473.632 171.297 473.646 171.574 473.73 171.834C473.814 172.094 473.964 172.327 474.165 172.512C473.846 172.505 473.537 172.395 473.286 172.198C471.59 171.256 471.138 170.502 469.392 171.457C468.639 171.858 467.898 172.285 467.157 172.713L459.621 176.92L436.008 190.07L408.376 205.494L385.353 218.318C382.213 220.064 378.408 221.596 375.607 223.819C376.386 224.221 376.524 224.837 375.833 225.439L374.577 226.582C374.577 226.896 375.029 226.896 375.318 226.771L376.875 226.105C375.793 227.479 374.49 228.663 373.02 229.609C370.55 231.043 367.896 232.133 365.132 232.85L366.463 231.179C366.564 231.041 366.689 230.865 366.601 230.702C366.513 230.539 366.35 230.526 366.199 230.514C365.534 230.438 364.868 230.514 364.378 230.024C360.083 232.536 355.586 234.922 351.215 237.359C349.983 238.049 349.075 239.199 348.689 240.557C348.303 241.915 348.471 243.371 349.156 244.606L377.843 296.102C378.182 296.713 378.638 297.251 379.186 297.685C379.733 298.119 380.361 298.441 381.033 298.633C381.705 298.824 382.408 298.881 383.102 298.8C383.796 298.719 384.467 298.502 385.077 298.162L392.626 293.904C392.626 293.012 393.329 292.02 392.802 291.204C392.727 291.104 392.679 290.988 392.663 290.864C392.663 290.701 392.814 290.576 392.952 290.488C393.726 289.996 394.612 289.711 395.527 289.659C395.841 289.659 396.256 289.797 396.205 290.098C396.205 289.822 397.826 289.244 398.089 289.156C398.215 289.835 397.75 290.563 398.541 290.701C399.333 290.839 400.539 289.445 401.053 289.194L408.589 284.986L432.453 271.71L458.629 257.128L476.024 247.432C476.652 247.068 477.393 246.641 477.996 246.339C478.214 245.187 478.774 244.128 479.604 243.3C480.86 242.433 482.844 243.388 483.887 242.157C484.088 241.918 484.213 241.629 484.389 241.378C484.74 240.97 485.166 240.633 485.645 240.386C485.949 240.147 486.315 240.003 486.7 239.971C487.077 239.971 487.479 240.285 487.429 240.662C490.016 240.059 492.352 238.313 494.638 237.02C495.467 236.555 502.739 233.139 502.714 232.599C502.614 230.928 503.631 229.496 503.581 227.776C503.581 227.449 502.94 225.264 503.229 225.1C496.698 228.994 489.915 232.536 483.259 236.228C483.033 236.367 482.179 236.655 482.003 236.907C482.003 236.907 481.94 237.02 481.915 237.083L481.726 237.497V237.597C481.456 238.452 481.137 239.291 480.772 240.109C480.772 240.223 479.353 241.981 479.239 241.566C478.687 239.544 477.983 239.23 476.439 240.059L474.228 241.315L467.207 245.221L443.557 258.409L415.686 273.934L392.462 286.87L382.728 292.284C380.786 288.767 378.831 285.254 376.863 281.746L373.095 274.976C372.714 274.037 372.15 273.184 371.437 272.464C370.897 272.062 369.98 272.163 369.503 271.798C368.335 270.907 367.493 269.286 366.388 268.244C365.634 267.541 364.491 265.43 364.805 264.262C365.182 264.413 365.559 264.576 365.936 264.689C365.739 263.916 365.783 263.101 366.061 262.353C362.293 256.01 358.827 249.379 355.222 242.898L354.983 242.483L363.775 237.585L370.194 234.005C371.514 233.438 372.775 232.744 373.962 231.933C374.778 231.23 375.607 230.35 376.474 229.597C377.055 229.154 377.688 228.783 378.358 228.491L380.731 227.336C380.853 227.263 380.991 227.22 381.133 227.21C381.275 227.226 381.415 227.26 381.548 227.311C382.804 227.575 385.919 225.251 387.049 224.623L394.359 220.554L416.414 208.257L443.896 192.959L471.402 177.624L493.533 165.302L504.837 159.022L505.364 158.733L517.585 180.676C518.341 182.155 519.552 183.352 521.039 184.092C521.542 184.255 522.107 184.607 522.044 185.122C521.981 185.637 521.228 186.064 521.403 186.591C521.579 187.119 522.546 186.918 522.772 187.395C522.999 187.872 522.383 188.651 522.458 189.304C522.718 190.086 523.104 190.82 523.601 191.477L527.156 197.87C529.14 201.412 531.112 204.967 533.109 208.546L511.381 220.654C511.488 220.741 511.577 220.847 511.644 220.968L511.757 221.257C512.189 221.41 512.609 221.595 513.013 221.81C513.187 221.906 513.33 222.049 513.427 222.222C513.525 222.395 513.573 222.591 513.566 222.789C513.563 222.985 513.508 223.177 513.406 223.345C513.305 223.513 513.161 223.65 512.988 223.744L511.657 224.497C511.61 224.789 511.475 225.059 511.271 225.272C511.067 225.485 510.803 225.631 510.514 225.691C510.359 225.704 510.204 225.704 510.049 225.691C509.917 225.787 509.766 225.854 509.605 225.887C509.445 225.92 509.279 225.917 509.12 225.879C508.835 225.792 508.596 225.598 508.451 225.338C508.306 225.078 508.266 224.773 508.341 224.485C508.393 224.356 508.46 224.233 508.542 224.121C508.447 223.938 508.403 223.732 508.417 223.526C508.43 223.32 508.499 223.122 508.617 222.953H508.215C507.989 222.953 507.788 222.827 507.575 222.764C506.445 223.462 505.566 224.5 505.063 225.728C505.008 225.795 504.981 225.881 504.987 225.967C504.987 226.143 505.264 226.155 505.427 226.231C505.804 226.407 505.716 226.959 505.528 227.323C505.339 227.688 505.113 228.152 505.364 228.479C505.459 228.589 505.565 228.69 505.678 228.78C506.218 229.396 505.389 231.179 506.708 230.451C506.615 230.063 506.674 229.654 506.871 229.308C507.095 228.958 507.439 228.703 507.839 228.592C508.815 228.355 509.812 228.212 510.815 228.165L537.003 213.52C538.235 212.83 539.144 211.68 539.53 210.322C539.916 208.964 539.748 207.508 539.063 206.273L538.912 206.009L527.081 184.77L520.248 172.486C519.582 171.318 518.992 170.1 518.263 168.945C518.063 168.516 517.796 168.121 517.472 167.776Z" fill="#E43226"/>
<path d="M396.469 237.171C395.603 236.116 395.866 236.09 395.703 234.96C395.703 234.96 395.703 234.96 395.703 234.885L395.603 234.772L395.452 234.596C394.862 234.86 394.271 235.148 393.681 235.475L382.113 241.918L386.773 250.271C386.12 249.115 388.431 249.454 388.519 249.442C388.764 249.369 389.017 249.327 389.272 249.316C389.523 249.37 389.744 249.518 389.888 249.731C390.371 250.575 390.515 251.572 390.29 252.519C390.152 253.775 390.817 255.031 390.101 256.287C390.717 257.292 396.281 267.415 396.306 267.403L407.874 260.959C408.539 260.582 410.122 259.917 410.511 259.251C410.901 258.585 410.285 257.543 410.976 257.229C411.236 257.134 411.515 257.098 411.791 257.124C412.067 257.15 412.333 257.237 412.571 257.38C414.774 255.198 416.191 252.347 416.598 249.273C417.005 246.2 416.379 243.078 414.819 240.399C411.566 234.558 404.181 231.079 397.713 233.792C397.261 233.98 397.864 236.003 396.783 236.229C396.99 235.824 397.286 235.471 397.65 235.199L396.469 237.171ZM404.859 256.224L399.471 259.226C399.032 258.435 398.605 257.643 398.152 256.877C398.718 257.832 397.16 257.53 396.834 257.317C396.042 256.789 395.829 255.27 395.804 254.416C395.785 252.951 395.349 251.522 394.548 250.296C393.283 248.01 392.027 245.724 390.78 243.438L396.168 240.436C401.192 237.623 406.216 238.791 408.929 243.664C411.642 248.537 409.921 253.448 404.859 256.224Z" fill="#E43226"/>
<path d="M434.715 215.781C434.989 216.377 435.069 217.046 434.941 217.69C434.878 218.042 434.313 218.946 434.388 219.172C434.589 219.674 434.79 220.177 434.978 220.679C435.012 220.761 435.059 220.838 435.117 220.905C435.213 220.97 435.327 221.005 435.443 221.006C437.44 221.182 437.352 221.383 437.478 223.066C437.591 224.51 438.834 225.339 439.538 226.595C440.482 228.245 440.893 230.147 440.713 232.04C440.533 233.933 439.771 235.724 438.532 237.166C437.293 238.609 435.638 239.633 433.794 240.097C431.95 240.561 430.008 240.442 428.234 239.758C428.187 239.803 428.136 239.845 428.083 239.883C427.819 240.016 427.516 240.052 427.229 239.984C426.576 239.799 425.985 239.441 425.518 238.948C425.052 238.455 424.727 237.845 424.579 237.183C424.56 237.083 424.56 236.981 424.579 236.882C424.223 236.442 423.908 235.971 423.637 235.475C422.991 234.437 422.567 233.277 422.391 232.068C422.214 230.858 422.289 229.626 422.611 228.447C422.933 227.268 423.495 226.168 424.261 225.216C425.028 224.264 425.982 223.481 427.066 222.915C428.636 222.019 430.437 221.608 432.24 221.734L432.14 221.583C431.06 220.152 434.953 219.574 433.195 218.607C432.454 218.205 432.579 216.384 432.391 215.643C429.538 215.707 426.745 216.48 424.265 217.891C416.226 222.375 413.451 231.255 417.671 238.828C419.446 242.087 422.383 244.557 425.897 245.749C426.724 246.109 427.609 246.313 428.51 246.352C429.54 246.264 429.037 246.352 429.477 245.736C429.917 245.121 429.653 244.857 430.319 244.204C430.984 243.551 431.763 243.162 431.901 242.157C431.901 242.609 432.404 242.935 432.404 243.413C432.404 243.551 432.404 243.689 432.404 243.815C432.43 243.979 432.505 244.132 432.617 244.254C433.044 244.832 433.76 245.51 433.773 246.176C435.61 245.871 437.374 245.224 438.972 244.267C446.973 239.808 449.812 230.941 445.566 223.342C443.368 219.461 439.236 216.032 434.715 215.781Z" fill="#E43226"/>
<path d="M460.399 198.298L469.015 213.759L447.739 205.344L442.865 208.069C446.156 213.972 449.648 219.813 452.737 225.829C452.951 225.176 453.453 225.05 454.056 224.962C455.187 224.812 455.149 225.377 455.764 226.495C455.84 226.633 455.928 226.771 456.066 226.796C456.204 226.821 456.48 226.595 456.706 226.62C456.932 226.645 457.02 226.922 456.958 227.135C456.878 227.345 456.773 227.543 456.644 227.726C456.279 228.416 456.882 228.856 456.807 229.484C456.807 229.811 455.714 231.142 455.84 231.368L457.096 233.528L462.924 230.288L461.366 227.5H461.077C459.382 227.726 460.135 225.503 459.758 224.586C459.149 223.287 458.456 222.028 457.686 220.818L454.257 214.776L471.552 221.584C471.508 221.087 471.567 220.586 471.728 220.114C471.866 219.851 472.984 219.361 472.984 219.109C473.049 219.92 473.427 220.672 474.039 221.207C474.705 221.797 474.705 221.709 474.579 222.752L475.609 223.166L480.457 220.466L466.265 195.007L460.399 198.298Z" fill="#E43226"/>
<path d="M489.677 209.162L486.386 203.271L498.218 196.677L495.706 192.093L483.887 198.687L480.81 193.148L488.798 188.701C489.135 188.266 489.564 187.91 490.054 187.659C490.302 187.531 490.588 187.5 490.858 187.571L494.236 185.699C494.236 185.699 491.837 181.417 491.611 180.964C490.456 181.492 491.611 182.949 490.443 183.652C490.682 183.903 491.034 184.795 490.443 184.908C490.104 184.908 489.853 184.481 489.514 184.519C489.175 184.557 489.162 184.72 488.986 184.67C488.933 184.654 488.884 184.627 488.842 184.59C488.801 184.553 488.769 184.507 488.748 184.456C488.585 184.077 488.379 183.719 488.132 183.388C487.341 182.622 480.119 187.433 479.114 187.998L472.395 191.766L486.575 217.225L492.239 214.073L492.352 213.922C492.767 213.394 493.169 212.854 493.608 212.364C493.787 212.195 494.015 212.087 494.26 212.058C494.504 212.028 494.751 212.079 494.965 212.201C495.066 212.254 495.156 212.326 495.229 212.415L506.294 206.248L503.656 201.513L489.677 209.162Z" fill="#E43226"/>
<path d="M504.786 480.056C504.786 480.056 496.521 462.045 505.954 444.272C515.387 426.5 518.137 422.317 512.121 418.687C506.105 415.058 503.329 432.893 503.329 432.893C503.329 432.893 498.305 420.609 502.437 407.773C506.569 394.936 509.257 373.986 503.542 371.738C497.828 369.49 502.45 397.85 497.489 407.522C494.959 400.733 493.325 393.644 492.628 386.433C491.95 376.109 493.017 359.63 488.496 355.398C483.974 351.165 481.098 354.142 485.531 376.875C488.197 390.491 489.672 404.313 489.94 418.185C489.94 418.185 480.131 388.292 473.612 387.426C467.093 386.559 467.043 396.218 472.683 404.62C478.322 413.023 489.124 428.045 490.895 435.832C490.895 435.832 480.143 413.349 470.459 420.232C460.776 427.115 478.887 440.718 486.951 445.629C495.014 450.54 500.629 481.299 500.629 481.299L504.786 480.056Z" fill="#E43226"/>
<path opacity="0.2" d="M504.786 480.056C504.786 480.056 496.521 462.045 505.954 444.272C515.387 426.5 518.137 422.317 512.121 418.687C506.105 415.058 503.329 432.893 503.329 432.893C503.329 432.893 498.305 420.609 502.437 407.773C506.569 394.936 509.257 373.986 503.542 371.738C497.828 369.49 502.45 397.85 497.489 407.522C494.959 400.733 493.325 393.644 492.628 386.433C491.95 376.109 493.017 359.63 488.496 355.398C483.974 351.165 481.098 354.142 485.531 376.875C488.197 390.491 489.672 404.313 489.94 418.185C489.94 418.185 480.131 388.292 473.612 387.426C467.093 386.559 467.043 396.218 472.683 404.62C478.322 413.023 489.124 428.045 490.895 435.832C490.895 435.832 480.143 413.349 470.459 420.232C460.776 427.115 478.887 440.718 486.951 445.629C495.014 450.54 500.629 481.299 500.629 481.299L504.786 480.056Z" fill="black"/>
<path d="M498.255 487.453C498.255 487.453 506.306 469.304 496.659 451.682C487.013 434.061 484.213 429.916 490.191 426.186C496.17 422.455 499.134 440.265 499.134 440.265C499.134 440.265 504.057 427.919 499.724 415.145C495.391 402.372 492.502 381.459 498.192 379.136C503.881 376.812 499.599 405.235 504.673 414.819C507.123 408 508.668 400.889 509.27 393.668C509.835 383.331 508.566 366.865 513.038 362.569C517.509 358.274 520.436 361.162 516.266 384.009C513.766 397.656 512.459 411.495 512.359 425.369C512.359 425.369 521.805 395.338 528.373 394.371C534.942 393.404 535.043 403.075 529.516 411.553C523.99 420.031 513.314 435.229 511.618 442.953C511.618 442.953 522.106 420.345 531.865 427.065C541.624 433.784 523.689 447.663 515.688 452.687C507.687 457.711 502.399 488.584 502.399 488.584L498.255 487.453Z" fill="#E43226"/>
<path d="M535.356 474.517H468.914L474.29 522.069H529.981L535.356 474.517Z" fill="#263238"/>
<path d="M195.471 175.526H151.624C149.935 175.526 148.316 176.197 147.121 177.391C145.927 178.585 145.256 180.205 145.256 181.894V224.522C145.256 226.211 145.927 227.831 147.121 229.025C148.316 230.219 149.935 230.89 151.624 230.89H165.654L156.209 243.727L172.537 230.89H195.459C197.148 230.89 198.767 230.219 199.961 229.025C201.156 227.831 201.827 226.211 201.827 224.522V181.894C201.827 180.207 201.157 178.589 199.966 177.395C198.774 176.202 197.158 175.529 195.471 175.526Z" fill="#E43226"/>
<path opacity="0.6" d="M195.471 175.526H151.624C149.935 175.526 148.316 176.197 147.121 177.391C145.927 178.585 145.256 180.205 145.256 181.894V224.522C145.256 226.211 145.927 227.831 147.121 229.025C148.316 230.219 149.935 230.89 151.624 230.89H165.654L156.209 243.727L172.537 230.89H195.459C197.148 230.89 198.767 230.219 199.961 229.025C201.156 227.831 201.827 226.211 201.827 224.522V181.894C201.827 180.207 201.157 178.589 199.966 177.395C198.774 176.202 197.158 175.529 195.471 175.526Z" fill="white"/>
<path d="M173.554 223.115C184.549 223.115 193.462 214.203 193.462 203.208C193.462 192.213 184.549 183.3 173.554 183.3C162.559 183.3 153.646 192.213 153.646 203.208C153.646 214.203 162.559 223.115 173.554 223.115Z" fill="#E43226"/>
<path opacity="0.2" d="M190.16 207.116C192.326 197.942 186.643 188.748 177.469 186.583C168.294 184.417 159.101 190.1 156.935 199.275C154.77 208.45 160.452 217.643 169.627 219.808C178.802 221.974 187.995 216.291 190.16 207.116Z" fill="black"/>
<path d="M171.432 211.36C171.2 211.365 170.97 211.324 170.755 211.24C170.539 211.156 170.342 211.03 170.176 210.87L162.928 203.773C162.595 203.45 162.404 203.008 162.397 202.544C162.39 202.08 162.568 201.632 162.891 201.299C163.214 200.966 163.656 200.775 164.12 200.768C164.584 200.761 165.032 200.938 165.365 201.261L171.306 207.077L181.58 195.609C181.895 195.292 182.32 195.107 182.767 195.094C183.214 195.081 183.649 195.239 183.983 195.537C184.316 195.835 184.523 196.25 184.559 196.696C184.596 197.142 184.46 197.584 184.18 197.933L172.688 210.757C172.529 210.934 172.336 211.077 172.12 211.176C171.904 211.276 171.669 211.33 171.432 211.335V211.36Z" fill="white"/>
<path d="M116.683 493.508L152.868 489.941V449.133H167.211V489.928L203.547 493.508C205.289 493.676 206.904 494.488 208.08 495.784C209.255 497.08 209.905 498.767 209.903 500.516V505.955H110.327V500.516C110.325 498.767 110.975 497.08 112.15 495.784C113.326 494.488 114.941 493.676 116.683 493.508Z" fill="#263238"/>
<path opacity="0.1" d="M116.683 493.508L152.868 489.941V449.133H167.211V489.928L203.547 493.508C205.289 493.676 206.904 494.488 208.08 495.784C209.255 497.08 209.905 498.767 209.903 500.516V505.955H110.327V500.516C110.325 498.767 110.975 497.08 112.15 495.784C113.326 494.488 114.941 493.676 116.683 493.508Z" fill="white"/>
<path d="M206.072 522.069C211.253 522.069 215.454 517.869 215.454 512.687C215.454 507.505 211.253 503.305 206.072 503.305C200.89 503.305 196.689 507.505 196.689 512.687C196.689 517.869 200.89 522.069 206.072 522.069Z" fill="#263238"/>
<path d="M114.158 522.069C119.339 522.069 123.54 517.869 123.54 512.687C123.54 507.505 119.339 503.305 114.158 503.305C108.976 503.305 104.775 507.505 104.775 512.687C104.775 517.869 108.976 522.069 114.158 522.069Z" fill="#263238"/>
<path d="M164.486 460.061H155.543C154.167 460.061 152.848 459.514 151.875 458.541C150.902 457.568 150.356 456.249 150.356 454.873V414.757H169.673V454.873C169.673 456.249 169.126 457.568 168.154 458.541C167.181 459.514 165.861 460.061 164.486 460.061Z" fill="#263238"/>
<path opacity="0.2" d="M164.486 460.061H155.543C154.167 460.061 152.848 459.514 151.875 458.541C150.902 457.568 150.356 456.249 150.356 454.873V414.757H169.673V454.873C169.673 456.249 169.126 457.568 168.154 458.541C167.181 459.514 165.861 460.061 164.486 460.061Z" fill="white"/>
<path d="M109.95 336.131C109.95 336.131 120.702 403.176 141.928 414.769H120.35C120.35 414.769 98.9981 391.91 92.5674 336.131H109.95Z" fill="#263238"/>
<path opacity="0.1" d="M109.95 336.131C109.95 336.131 120.702 403.176 141.928 414.769H120.35C120.35 414.769 98.9981 391.91 92.5674 336.131H109.95Z" fill="white"/>
<path d="M119.32 405.286H203.372C205.037 405.286 206.634 405.948 207.812 407.126C208.99 408.303 209.652 409.901 209.652 411.566V419.969H113.04V411.566C113.04 409.901 113.702 408.303 114.879 407.126C116.057 405.948 117.654 405.286 119.32 405.286Z" fill="#E43226"/>
<path d="M211.109 412.621H111.495C110.101 412.621 108.971 413.752 108.971 415.146V417.432C108.971 418.826 110.101 419.956 111.495 419.956H211.109C212.503 419.956 213.633 418.826 213.633 417.432V415.146C213.633 413.752 212.503 412.621 211.109 412.621Z" fill="#263238"/>
<path opacity="0.6" d="M211.109 412.621H111.495C110.101 412.621 108.971 413.752 108.971 415.146V417.432C108.971 418.826 110.101 419.956 111.495 419.956H211.109C212.503 419.956 213.633 418.826 213.633 417.432V415.146C213.633 413.752 212.503 412.621 211.109 412.621Z" fill="white"/>
<path d="M90.0175 349.771H124.545C134.668 349.771 141.237 341.658 139.228 331.647L136.54 318.283C134.53 308.235 124.696 300.172 114.585 300.172H80.0574C69.9341 300.172 63.3652 308.286 65.3748 318.283L68.0626 331.647C70.0722 341.632 79.8941 349.771 90.0175 349.771Z" fill="#E43226"/>
<path d="M273.23 462.07L265.318 465.172L259.628 454.446L254.453 444.687L263.22 439.437L268.52 451.407L273.23 462.07Z" fill="#E4897B"/>
<path opacity="0.2" d="M268.52 451.407L259.628 454.446L254.453 444.687L263.22 439.437L268.52 451.407Z" fill="black"/>
<path d="M266.875 445.554L256.111 451.331C256.111 451.331 215.429 379.802 209.174 380.405C202.919 381.008 143.573 418.814 125.474 404.847C107.375 390.88 124.984 348.829 124.984 348.829C124.984 348.829 162.426 338.128 166.432 346.317C167.488 348.769 168.386 351.286 169.12 353.853C169.912 356.428 170.514 358.601 170.514 358.601C171.657 358.136 208.634 342.976 225.138 351.065C241.981 359.38 266.875 445.554 266.875 445.554Z" fill="#263238"/>
<path opacity="0.3" d="M266.875 445.554L256.111 451.331C256.111 451.331 215.429 379.802 209.174 380.405C202.919 381.008 143.573 418.814 125.474 404.847C107.375 390.88 124.984 348.829 124.984 348.829C124.984 348.829 162.426 338.128 166.432 346.317C167.488 348.769 168.386 351.286 169.12 353.853C169.912 356.428 170.514 358.601 170.514 358.601C171.657 358.136 208.634 342.976 225.138 351.065C241.981 359.38 266.875 445.554 266.875 445.554Z" fill="white"/>
<path d="M208.396 503.882L199.955 502.915L199.905 491.008L199.893 480.081L210.104 479.604L209.2 492.453L208.396 503.882Z" fill="#E4897B"/>
<path opacity="0.2" d="M209.174 492.716L199.88 491.234V480.194L210.091 479.654L209.174 492.716Z" fill="black"/>
<path d="M250.848 447.777L266.598 439.889L268.244 446.571L256.312 452.725L250.848 447.777Z" fill="#E43226"/>
<path d="M153.433 404.96C153.433 404.96 156.02 404.671 195.823 397.298C195.823 397.298 196.727 448.191 198.611 486.135L210.87 486.524C210.87 486.524 228.454 402.372 226.382 389.611C224.309 376.85 209.187 375.18 209.187 375.18C209.187 375.18 182.924 395.64 153.433 404.96Z" fill="#263238"/>
<path opacity="0.4" d="M153.433 404.96C153.433 404.96 156.02 404.671 195.823 397.298C195.823 397.298 196.727 448.191 198.611 486.135L210.87 486.524C210.87 486.524 228.454 402.372 226.382 389.611C224.309 376.85 209.187 375.18 209.187 375.18C209.187 375.18 182.924 395.64 153.433 404.96Z" fill="white"/>
<path opacity="0.3" d="M153.433 404.96C153.433 404.96 156.02 404.671 195.823 397.298C195.823 397.298 196.727 448.191 198.611 486.135L210.87 486.524C210.87 486.524 228.454 402.372 226.382 389.611C224.309 376.85 209.187 375.18 209.187 375.18C209.187 375.18 182.924 395.64 153.433 404.96Z" fill="black"/>
<path d="M196.363 482.744L213.08 482.354L210.794 489.237L197.229 489.363L196.363 482.744Z" fill="#E43226"/>
<path opacity="0.3" d="M170.565 358.626L148.874 366.35C148.874 366.35 160.278 357.835 169.17 353.878C169.962 356.453 170.565 358.626 170.565 358.626Z" fill="black"/>
<path d="M122.473 346.242L123.276 352.258L163.933 343.629L162.991 336.521L122.473 346.242Z" fill="#263238"/>
<path opacity="0.2" d="M122.473 346.242L123.276 352.258L163.933 343.629L162.991 336.521L122.473 346.242Z" fill="black"/>
<path d="M135.944 341.871L133.918 342.247L135.831 352.558L137.857 352.183L135.944 341.871Z" fill="#263238"/>
<path d="M153.672 339.261L144.801 341.26L146.317 347.987L155.188 345.987L153.672 339.261Z" fill="white"/>
<path d="M159.376 335.06L157.357 335.431L159.245 345.709L161.264 345.338L159.376 335.06Z" fill="#263238"/>
<path opacity="0.3" d="M135.944 341.871L133.918 342.247L135.831 352.558L137.857 352.183L135.944 341.871Z" fill="white"/>
<path opacity="0.3" d="M159.376 335.06L157.357 335.431L159.245 345.709L161.264 345.338L159.376 335.06Z" fill="white"/>
<path d="M288.956 476.112C287.635 475.707 286.251 475.549 284.874 475.647C284.874 475.647 279.762 473.512 273.57 463.351L268.294 464.042C267.407 464.175 266.581 464.578 265.93 465.196C265.278 465.814 264.832 466.616 264.652 467.496C264.614 467.746 264.614 468 264.652 468.249C264.879 469.524 265.19 470.783 265.581 472.017C266.934 476.1 268.532 480.097 270.367 483.987L271.221 483.635L268.495 476.024C267.591 473.424 270.744 475.622 272.414 478.134C274.085 480.646 276.458 483.083 282.098 480.948C288.654 478.385 291.254 477.029 288.956 476.112Z" fill="#263238"/>
<path d="M272.25 460.651C272.25 460.651 280.716 473.512 284.873 475.648C284.873 475.648 280.213 479.416 273.996 473.362C265.97 465.587 264.626 468.25 264.626 468.25C264.555 466.727 264.626 465.2 264.84 463.69C265.481 460.739 272.25 460.651 272.25 460.651Z" fill="#E4897B"/>
<path d="M221.056 518.854C219.853 518.16 218.534 517.692 217.163 517.472C217.163 517.472 212.704 514.194 209.124 502.865L203.836 502.287C202.939 502.202 202.038 502.398 201.257 502.848C200.476 503.298 199.854 503.98 199.478 504.799C199.365 505.024 199.289 505.266 199.252 505.515C199.164 506.799 199.164 508.087 199.252 509.371C199.593 513.658 200.197 517.919 201.061 522.132L201.977 521.994L201.161 513.93C200.897 511.192 203.447 514.081 204.477 516.92C205.507 519.758 207.228 522.685 213.206 521.944C220.189 521.002 223.028 520.298 221.056 518.854Z" fill="#263238"/>
<path d="M208.496 499.888C208.496 499.888 213.67 514.395 217.2 517.472C217.2 517.472 211.786 519.984 207.152 512.674C201.186 503.216 199.264 505.49 199.264 505.49C199.545 503.997 199.966 502.533 200.52 501.119C201.852 498.356 208.496 499.888 208.496 499.888Z" fill="#E4897B"/>
<path d="M113.618 243.664L102.992 245.8C102.577 246.149 102.086 246.398 101.559 246.527C101.032 246.655 100.482 246.66 99.9524 246.541C96.7873 245.285 92.228 241.605 91.6503 240.261C90.7962 238.364 91.6503 232.8 93.886 231.795C96.1216 230.79 103.821 240.085 103.821 240.085L115.238 237.51L113.618 243.664Z" fill="#E4897B"/>
<path d="M147.128 278.983C147.128 278.983 146.161 244.556 142.179 243.087C138.198 241.617 108.267 245.724 108.267 245.724L107.539 237.862C107.539 237.862 142.367 232.499 149.112 235.676C155.857 238.854 158.08 290.162 156.849 300.046L147.128 278.983Z" fill="#E43226"/>
<path opacity="0.6" d="M147.128 278.983C147.128 278.983 146.161 244.556 142.179 243.087C138.198 241.617 108.267 245.724 108.267 245.724L107.539 237.862C107.539 237.862 142.367 232.499 149.112 235.676C155.857 238.854 158.08 290.162 156.849 300.046L147.128 278.983Z" fill="white"/>
<path d="M108.782 246.478L106.697 237.837L109.687 236.756L111.583 246.742L108.782 246.478Z" fill="#E43226"/>
<path opacity="0.7" d="M108.782 246.478L106.697 237.837L109.687 236.756L111.583 246.742L108.782 246.478Z" fill="white"/>
<path d="M146.952 274.688C146.952 274.688 144.277 285.163 131.39 288.503C118.504 291.844 104.248 283.115 104.248 283.115L107.087 308.11L122.862 347.485L163.18 336.973C163.18 336.973 160.768 291.166 146.952 274.688Z" fill="#E43226"/>
<path opacity="0.7" d="M146.952 274.688C146.952 274.688 144.277 285.163 131.39 288.503C118.504 291.844 104.248 283.115 104.248 283.115L107.087 308.11L122.862 347.485L163.18 336.973C163.18 336.973 160.768 291.166 146.952 274.688Z" fill="white"/>
<path opacity="0.6" d="M153.959 316.223L158.678 314.734C159.201 314.569 159.491 314.011 159.326 313.489L156.514 304.577C156.35 304.055 155.792 303.765 155.27 303.929L150.55 305.418C150.028 305.583 149.738 306.141 149.903 306.663L152.714 315.575C152.879 316.097 153.436 316.387 153.959 316.223Z" fill="#E43226"/>
<path opacity="0.2" d="M152.998 313.506L158.364 311.813L156.047 304.47L150.681 306.163L152.998 313.506Z" fill="black"/>
<path d="M152.818 301.816L151.632 302.19L152.997 306.514L154.182 306.14L152.818 301.816Z" fill="#263238"/>
<path d="M119.546 235.563C109.611 235.563 103.055 246.088 105.378 262.781C107.702 279.473 117.009 284.283 117.009 284.283L116.419 280.251C126.751 282.596 137.403 283.191 147.932 282.01C147.932 282.01 143.134 268.395 144.691 254.491C144.691 254.491 147.844 235.538 119.546 235.563Z" fill="#263238"/>
<path opacity="0.2" d="M139.278 285.112L143.335 300.184L136.201 294.746C136.201 294.746 143.146 310.622 144.993 319.866C144.993 319.866 138.989 304.128 133.814 295.499L130.787 304.141L118.617 291.744C118.617 291.744 129.368 283.505 139.278 285.112Z" fill="black"/>
<path d="M133.35 289.973L120.965 290.35C126.454 283.329 116.532 271.095 116.532 271.095L128.765 273.745C131.679 285.853 136.716 286.217 136.716 286.217L133.35 289.973Z" fill="#E4897B"/>
<path opacity="0.2" d="M132.181 282.437C127.456 282.042 123.061 279.853 119.898 276.32C118.921 274.505 117.795 272.775 116.532 271.146L128.765 273.808C129.413 276.855 130.568 279.772 132.181 282.437Z" fill="black"/>
<path d="M128.753 240.675C139.416 241.567 142.38 247.558 142.242 258.623C142.079 272.439 138.21 281.947 125.123 277.903C107.338 272.414 111.03 239.193 128.753 240.675Z" fill="#E4897B"/>
<path d="M135.397 257.48C136.119 259.146 137.038 260.719 138.135 262.165C137.784 262.577 137.326 262.885 136.813 263.056C136.299 263.226 135.748 263.253 135.221 263.132L135.397 257.48Z" fill="#DE5753"/>
<path d="M128.175 255.696L130.486 254.943C130.486 254.943 129.255 256.777 128.175 255.696Z" fill="#263238"/>
<path d="M128.979 255.433C128.549 255.222 128.057 255.174 127.595 255.299C127.133 255.424 126.732 255.713 126.467 256.111C126.861 255.932 127.289 255.838 127.723 255.838C128.156 255.838 128.584 255.932 128.979 256.111V255.433Z" fill="#263238"/>
<path d="M124.683 250.346C124.564 250.343 124.451 250.293 124.369 250.208C124.325 250.167 124.29 250.117 124.267 250.062C124.243 250.007 124.23 249.948 124.23 249.888C124.23 249.828 124.243 249.768 124.267 249.713C124.29 249.658 124.325 249.608 124.369 249.567C125.069 248.955 125.903 248.513 126.803 248.278C127.703 248.042 128.646 248.019 129.556 248.211C129.674 248.236 129.778 248.307 129.844 248.408C129.91 248.509 129.933 248.633 129.908 248.751C129.883 248.869 129.812 248.973 129.711 249.039C129.609 249.105 129.486 249.128 129.368 249.103C128.608 248.947 127.823 248.965 127.071 249.154C126.318 249.343 125.618 249.699 125.022 250.195C124.98 250.244 124.928 250.282 124.869 250.308C124.811 250.334 124.747 250.347 124.683 250.346Z" fill="#263238"/>
<path d="M141.413 250.535C141.314 250.538 141.216 250.507 141.137 250.447C140.634 249.986 140.035 249.643 139.383 249.443C138.731 249.243 138.043 249.191 137.369 249.291C137.311 249.307 137.251 249.311 137.191 249.303C137.132 249.296 137.075 249.277 137.023 249.247C136.971 249.217 136.926 249.177 136.889 249.13C136.852 249.083 136.826 249.029 136.81 248.971C136.794 248.913 136.79 248.853 136.798 248.794C136.805 248.734 136.824 248.677 136.854 248.625C136.884 248.573 136.924 248.528 136.971 248.491C137.018 248.455 137.072 248.428 137.13 248.412C137.944 248.268 138.78 248.312 139.575 248.541C140.37 248.769 141.101 249.176 141.715 249.731C141.808 249.807 141.867 249.916 141.881 250.036C141.895 250.155 141.863 250.276 141.79 250.371C141.744 250.426 141.687 250.47 141.621 250.498C141.556 250.527 141.484 250.539 141.413 250.535Z" fill="#263238"/>
<path d="M115.552 257.681C115.552 257.681 121.267 249.341 121.079 242.509C121.079 242.509 142.946 235.626 142.205 257.179C142.205 257.179 145.847 238.339 127.547 236.342C109.247 234.345 107.124 261.248 115.929 270.04C115.929 270.04 112.048 262.906 115.552 257.681Z" fill="#263238"/>
<path d="M117.147 260.08C117.147 258.837 116.654 257.644 115.776 256.763C114.897 255.883 113.706 255.386 112.462 255.383C109.121 255.471 106.986 262.128 115.075 264.451C116.23 264.778 116.996 263.685 117.147 260.08Z" fill="#E4897B"/>
<path d="M135.309 266.272C134.526 267.323 133.825 268.431 133.211 269.588C132.998 269.513 132.772 269.45 132.558 269.362C129.606 268.32 128.576 266.85 128.338 265.594C128.225 264.956 128.273 264.3 128.476 263.685C128.581 263.331 128.733 262.993 128.928 262.68C130.463 264.139 132.297 265.245 134.304 265.921C134.907 266.147 135.309 266.272 135.309 266.272Z" fill="#263238"/>
<path d="M134.304 265.895L133.663 266.862C130.875 265.87 129.054 264.803 128.476 263.66C128.581 263.306 128.733 262.968 128.928 262.655C130.463 264.113 132.298 265.219 134.304 265.895Z" fill="white"/>
<path d="M132.558 269.362C129.606 268.32 128.577 266.85 128.338 265.594C129.454 266.006 130.488 266.614 131.39 267.39C131.975 267.91 132.383 268.6 132.558 269.362Z" fill="#DE5753"/>
<path d="M128.464 241.466C128.464 241.466 122.699 258.661 111.671 257.48C100.643 256.299 119.546 235.525 119.546 235.525C119.546 235.525 138.148 230.212 146.249 240.549C154.35 250.886 142.242 257.154 142.242 257.154C142.242 257.154 144.051 243.664 128.464 241.466Z" fill="#263238"/>
<path d="M119.672 256.099C119.608 256.096 119.546 256.075 119.493 256.04C119.44 256.005 119.398 255.955 119.37 255.898C119.342 255.818 119.345 255.73 119.38 255.652C119.416 255.575 119.48 255.514 119.559 255.483C128.351 252.13 128.15 240.336 128.15 240.21C128.146 240.169 128.151 240.128 128.165 240.089C128.179 240.05 128.201 240.015 128.229 239.985C128.258 239.955 128.292 239.932 128.331 239.917C128.369 239.901 128.41 239.894 128.451 239.896C128.533 239.899 128.611 239.931 128.671 239.986C128.731 240.041 128.769 240.117 128.778 240.198C128.778 240.323 128.979 252.557 119.785 256.074L119.672 256.099Z" fill="#263238"/>
<path d="M139.001 256.739L141.312 255.998C141.312 255.998 140.069 257.819 139.001 256.739Z" fill="#263238"/>
<path d="M139.805 256.476C139.375 256.263 138.881 256.216 138.418 256.343C137.955 256.47 137.555 256.763 137.293 257.166C137.682 256.973 138.108 256.866 138.541 256.853C138.975 256.84 139.406 256.921 139.805 257.091V256.476Z" fill="#263238"/>
<path d="M122.711 285.275L132.043 290.023L131.892 299.481L118.554 291.706L122.711 285.275Z" fill="#E43226"/>
<path d="M133.462 283.492L134.015 289.232L140.107 295.675L139.278 285.075L133.462 283.492Z" fill="#E43226"/>
<path d="M90.3442 218.544L86.4506 208.496C86.5217 207.959 86.4667 207.413 86.2901 206.9C86.1136 206.388 85.8202 205.924 85.4332 205.545C82.7202 203.522 77.1185 201.689 75.7118 201.902C73.6645 202.204 69.4318 205.909 69.796 208.333C70.1603 210.757 82.1174 212.252 82.1174 212.252L86.0863 223.267L90.3442 218.544Z" fill="#E4897B"/>
<path d="M107.112 308.109C107.112 308.109 114.648 302.118 111.646 288.88L103.545 252.255L89.6283 214.424L82.8208 217.866C82.8208 217.866 94.2504 254.83 95.3054 257.329C95.8455 258.585 97.9933 277.764 100.92 290.613C103.608 302.445 107.112 308.109 107.112 308.109Z" fill="#E43226"/>
<path opacity="0.6" d="M107.112 308.109C107.112 308.109 114.648 302.118 111.646 288.88L103.545 252.255L89.6283 214.424L82.8208 217.866C82.8208 217.866 94.2504 254.83 95.3054 257.329C95.8455 258.585 97.9933 277.764 100.92 290.613C103.608 302.445 107.112 308.109 107.112 308.109Z" fill="white"/>
<path d="M81.6274 216.786L89.5779 212.804L91.3112 215.454L82.0168 219.574L81.6274 216.786Z" fill="#E43226"/>
<path opacity="0.7" d="M81.6274 216.786L89.5779 212.804L91.3112 215.454L82.0168 219.574L81.6274 216.786Z" fill="white"/>
<path opacity="0.6" d="M122.711 285.275L132.043 290.023L131.892 299.481L118.554 291.706L122.711 285.275Z" fill="white"/>
<path opacity="0.6" d="M133.462 283.492L134.015 289.232L140.107 295.675L139.278 285.075L133.462 283.492Z" fill="white"/>
<path d="M398.478 265.531H360.849V294.771H398.478V265.531Z" fill="white"/>
<path opacity="0.1" d="M398.478 265.531H388.832V294.771H398.478V265.531Z" fill="black"/>
<path d="M358.688 320.594H401.229V267.528H387.526L358.688 281.332V320.594Z" fill="#E43226"/>
<path opacity="0.2" d="M401.229 267.528H387.526V320.594H401.229V267.528Z" fill="black"/>
<path opacity="0.7" d="M382.991 291.794H363.071V301.34H382.991V291.794Z" fill="white"/>
<path opacity="0.7" d="M382.991 304.53H363.071V305.899H382.991V304.53Z" fill="white"/>
<path opacity="0.7" d="M399.897 308.537H388.832V316.638H399.897V308.537Z" fill="white"/>
<path d="M382.489 263.936H344.859V294.771H382.489V263.936Z" fill="white"/>
<path opacity="0.1" d="M382.49 263.936H372.844V294.771H382.49V263.936Z" fill="black"/>
<path d="M342.699 320.594H385.24V267.528H371.537L342.699 281.332V320.594Z" fill="#E43226"/>
<path opacity="0.2" d="M385.24 267.528H371.537V320.594H385.24V267.528Z" fill="black"/>
<path opacity="0.7" d="M367.003 291.794H347.083V301.34H367.003V291.794Z" fill="white"/>
<path opacity="0.7" d="M367.003 304.53H347.083V305.899H367.003V304.53Z" fill="white"/>
<path opacity="0.7" d="M383.909 308.537H372.844V316.638H383.909V308.537Z" fill="white"/>
<path d="M316.273 522.069H323.973L337.789 329.587H327.577L316.273 522.069Z" fill="#263238"/>
<path opacity="0.1" d="M316.273 522.069H323.973L337.11 339.146L337.789 329.901H327.577L327.037 339.146L316.273 522.069Z" fill="white"/>
<path opacity="0.2" d="M327.037 338.693H337.11L337.788 329.901H327.577L327.037 338.693Z" fill="black"/>
<path d="M259.803 522.069H267.503L268.759 329.587H258.547L259.803 522.069Z" fill="#263238"/>
<path opacity="0.1" d="M258.535 329.901L258.748 360.95L259.791 522.069H267.49L268.545 360.95L268.746 329.901H258.535Z" fill="white"/>
<path opacity="0.2" d="M258.535 329.901L258.748 361.301H268.545L268.746 329.901H258.535Z" fill="black"/>
<path d="M178.113 522.069H185.813L199.629 329.587H189.417L178.113 522.069Z" fill="#263238"/>
<path opacity="0.1" d="M178.113 522.069H185.813L198.963 339.146L199.629 329.901H189.417L188.877 339.146L178.113 522.069Z" fill="white"/>
<path opacity="0.2" d="M188.877 338.693H198.963L199.628 329.901H189.417L188.877 338.693Z" fill="black"/>
<path d="M404.293 522.069H411.993L400.676 329.587H390.465L404.293 522.069Z" fill="#263238"/>
<path opacity="0.1" d="M390.465 329.901L391.156 339.146L404.293 522.069H411.98L401.229 339.146L400.676 329.901H390.465Z" fill="white"/>
<path opacity="0.2" d="M400.676 329.901H390.465L391.156 338.693H401.229L400.676 329.901Z" fill="black"/>
<path d="M406.064 334.41H184.054C183.698 334.41 183.345 334.34 183.016 334.204C182.686 334.067 182.387 333.867 182.135 333.616C181.884 333.364 181.684 333.065 181.547 332.735C181.411 332.406 181.341 332.053 181.341 331.697V324.777H408.777V331.697C408.777 332.053 408.707 332.406 408.571 332.735C408.434 333.065 408.235 333.364 407.983 333.616C407.731 333.867 407.432 334.067 407.103 334.204C406.773 334.34 406.421 334.41 406.064 334.41Z" fill="#E43226"/>
<path opacity="0.4" d="M406.064 334.41H184.054C183.698 334.41 183.345 334.34 183.016 334.204C182.686 334.067 182.387 333.867 182.135 333.616C181.884 333.364 181.684 333.065 181.547 332.735C181.411 332.406 181.341 332.053 181.341 331.697V324.777H408.777V331.697C408.777 332.053 408.707 332.406 408.571 332.735C408.434 333.065 408.235 333.364 407.983 333.616C407.731 333.867 407.432 334.067 407.103 334.204C406.773 334.34 406.421 334.41 406.064 334.41Z" fill="white"/>
<path opacity="0.2" d="M181.341 329.587H408.777V324.764H181.341V329.587Z" fill="black"/>
<path d="M176.568 326.02H413.538C413.895 326.022 414.248 325.953 414.578 325.817C414.908 325.681 415.208 325.482 415.46 325.229C415.712 324.977 415.912 324.677 416.048 324.347C416.183 324.017 416.252 323.664 416.251 323.307C416.251 322.588 415.965 321.898 415.456 321.389C414.947 320.88 414.257 320.594 413.538 320.594H176.568C175.848 320.594 175.156 320.88 174.645 321.388C174.135 321.896 173.846 322.587 173.843 323.307C173.843 323.665 173.913 324.018 174.05 324.348C174.188 324.678 174.389 324.978 174.642 325.23C174.895 325.482 175.196 325.682 175.526 325.817C175.857 325.953 176.211 326.022 176.568 326.02Z" fill="#E43226"/>
<path opacity="0.4" d="M176.568 326.02H413.538C413.895 326.022 414.248 325.953 414.578 325.817C414.908 325.681 415.208 325.482 415.46 325.229C415.712 324.977 415.912 324.677 416.048 324.347C416.183 324.017 416.252 323.664 416.251 323.307C416.251 322.588 415.965 321.898 415.456 321.389C414.947 320.88 414.257 320.594 413.538 320.594H176.568C175.848 320.594 175.156 320.88 174.645 321.388C174.135 321.896 173.846 322.587 173.843 323.307C173.843 323.665 173.913 324.018 174.05 324.348C174.188 324.678 174.389 324.978 174.642 325.23C174.895 325.482 175.196 325.682 175.526 325.817C175.857 325.953 176.211 326.022 176.568 326.02Z" fill="white"/>
<path d="M362.619 320.569V316.324H365.471L362.619 314.666H364.755L361.904 312.807H359.203V310.672H362.343L359.203 309.429V304.794H362.343V301.767H365.471L362.343 300.712V298.552H364.579L362.745 296.73L361.163 295.135H312.631V297.308H309.428L312.995 298.916V300.712H306.451V304.053H303.55L306.451 305.51V309.24H308.511V311.024H312.631V316.324H310.32L312.216 318.221V320.594L362.619 320.569Z" fill="#E43226"/>
<path opacity="0.7" d="M362.619 320.569V316.324H365.471L362.619 314.666H364.755L361.904 312.807H359.203V310.672H362.343L359.203 309.429V304.794H362.343V301.767H365.471L362.343 300.712V298.552H364.579L362.745 296.73L361.163 295.135H312.631V297.308H309.428L312.995 298.916V300.712H306.451V304.053H303.55L306.451 305.51V309.24H308.511V311.024H312.631V316.324H310.32L312.216 318.221V320.594L362.619 320.569Z" fill="white"/>
<path opacity="0.1" d="M362.62 320.569V316.324H365.471L362.62 314.666H364.755L361.904 312.807H359.203V310.672H362.343L359.203 309.429V304.794H362.343V301.767H365.471L362.343 300.712V298.552H364.579L362.745 296.73L361.163 295.135H335.603V297.308H332.4L335.955 298.916V300.712H329.411V304.053H326.51L329.411 305.51V309.24H331.471V311.024H335.603V316.324H333.292L335.176 318.221V320.594L362.62 320.569Z" fill="black"/>
<path opacity="0.1" d="M312.995 300.712H335.955L312.995 299.883V300.712Z" fill="black"/>
<path opacity="0.1" d="M312.631 311.023H335.603L335.704 312.631L312.631 311.023Z" fill="black"/>
<path opacity="0.1" d="M308.511 309.24H331.471L308.511 310.044V309.24Z" fill="black"/>
<path opacity="0.1" d="M312.631 316.324H335.603L312.631 315.482V316.324Z" fill="black"/>
<path opacity="0.1" d="M312.216 318.22H335.176V319.099L312.216 318.22Z" fill="black"/>
<path opacity="0.1" d="M306.451 304.053H329.411L306.451 303.324V304.053Z" fill="black"/>
<path opacity="0.1" d="M312.631 297.308H335.603L312.631 296.504V297.308Z" fill="black"/>
<path opacity="0.1" d="M362.344 298.551H339.045L362.344 299.267V298.551Z" fill="black"/>
<path opacity="0.1" d="M335.955 300.712H362.344L338.417 301.491L335.955 300.712Z" fill="black"/>
<path opacity="0.1" d="M329.411 304.053L362.343 304.794V304.053H329.411Z" fill="black"/>
<path opacity="0.1" d="M329.411 305.51H345.701L329.411 306.301V305.51Z" fill="black"/>
<path opacity="0.1" d="M359.204 309.428L335.604 309.24L359.204 308.712V309.428Z" fill="black"/>
<path opacity="0.1" d="M359.203 310.672H335.176L359.203 311.476V310.672Z" fill="black"/>
<path opacity="0.1" d="M362.62 314.666H335.955V315.482L362.62 314.666Z" fill="black"/>
<path opacity="0.1" d="M362.62 316.324H343.303L362.62 316.864V316.324Z" fill="black"/>
<path d="M300.824 315.093V319.125C300.824 320.154 299.568 320.581 298.576 320.581H218.041C217.012 320.581 215.768 320.154 215.768 319.125V315.093H300.824Z" fill="#263238"/>
<path opacity="0.4" d="M300.824 315.093V319.125C300.824 320.154 299.568 320.581 298.576 320.581H218.041C217.012 320.581 215.768 320.154 215.768 319.125V315.093H300.824Z" fill="white"/>
<path opacity="0.2" d="M300.824 315.093V319.125C300.824 320.154 299.568 320.581 298.576 320.581H245.46C244.43 320.581 243.199 320.154 243.199 319.125V315.093H300.824Z" fill="black"/>
<path d="M314.301 273.243L304.705 316.738C304.54 317.444 304.144 318.075 303.58 318.53C303.016 318.985 302.315 319.239 301.591 319.25H249.228C248.902 319.243 248.582 319.161 248.294 319.009C248.005 318.858 247.756 318.642 247.565 318.378C247.374 318.114 247.246 317.809 247.193 317.488C247.139 317.166 247.161 316.837 247.256 316.525L256.827 273.369C257.023 272.71 257.439 272.139 258.006 271.75C258.573 271.361 259.256 271.179 259.942 271.234H312.317C313.724 271.183 314.603 271.824 314.301 273.243Z" fill="#263238"/>
<path opacity="0.4" d="M314.301 273.243L304.705 316.738C304.54 317.444 304.144 318.075 303.58 318.53C303.016 318.985 302.315 319.239 301.591 319.25H250.999C250.673 319.243 250.353 319.161 250.065 319.009C249.776 318.858 249.527 318.642 249.336 318.378C249.145 318.114 249.017 317.809 248.964 317.487C248.91 317.166 248.932 316.836 249.027 316.525L258.61 273.369C258.804 272.709 259.22 272.136 259.788 271.747C260.355 271.358 261.04 271.176 261.725 271.233H312.317C313.724 271.183 314.603 271.824 314.301 273.243Z" fill="white"/>
<path opacity="0.2" d="M288.478 295.348C288.478 299.116 284.484 302.093 281.557 302.093C278.631 302.093 276.898 299.066 277.789 295.348C278.681 291.631 281.557 288.729 284.396 288.616C283.567 292.384 285.351 295.348 288.265 295.348H288.478Z" fill="black"/>
</svg>
